<?xml version="1.0" encoding="UTF-8" standalone="no"?>
<!DOCTYPE svg PUBLIC "-//W3C//DTD SVG 1.1//EN" "http://www.w3.org/Graphics/SVG/1.1/DTD/svg11.dtd">
<svg version="1.1" xmlns="http://www.w3.org/2000/svg" xmlns:xlink="http://www.w3.org/1999/xlink" preserveAspectRatio="xMidYMid meet" viewBox="0 0 640 640" width="640" height="640"><defs><path d="M535.2 181.11L400 181.11L400 217.32L535.73 217.32L535.2 181.11ZM472 439.75C455.54 441.41 439.12 436.38 426.67 425.88C415.28 413.45 409.35 397.24 410.13 380.68C427.79 380.68 569.01 380.68 586.67 380.68C587.94 363.43 586.41 346.1 582.13 329.31C578 313.33 570.76 298.26 560.8 284.87C550.78 271.89 537.83 261.27 522.93 253.79C506.36 245.92 488.08 241.96 469.6 242.24C452.22 242.11 434.99 245.34 418.93 251.74C404.23 257.71 390.9 266.44 379.73 277.42C368.6 288.63 359.97 301.92 354.4 316.47C348.42 332.17 345.44 348.79 345.6 365.52C345.33 382.49 348.22 399.37 354.13 415.35C359.16 429.83 367.14 443.19 377.6 454.65C388.42 465.91 401.73 474.68 416.53 480.34C433.04 486.39 450.6 489.36 468.27 489.07C493.05 489.81 517.52 483.56 538.67 471.09C560.02 456.47 575.4 435.12 582.13 410.73C576.24 410.73 529.09 410.73 523.2 410.73C520.04 418.8 514.24 425.65 506.67 430.25C496.41 436.8 484.3 440.12 472 439.75ZM415.2 324.43C419.4 311.48 429.08 300.84 441.87 295.15C450.24 291.52 459.36 289.76 468.53 290.01C481.95 288.91 495.2 293.5 504.8 302.6C513.86 313.28 519.68 326.17 521.6 339.84C510.53 339.84 422 339.84 410.93 339.84C411.36 334.62 412.35 329.46 413.87 324.43C414.13 324.43 414.93 324.43 415.2 324.43ZM274.13 312.1C287.71 306.66 299.5 297.78 308.27 286.41C316.33 274.34 320.33 260.17 319.73 245.83C320.26 232.75 317.61 219.74 312 207.82C307.29 197.49 299.72 188.61 290.13 182.13C279.96 175.4 268.42 170.85 256.27 168.78C241.89 165.87 227.22 164.49 212.53 164.67C201.92 164.67 148.85 164.67 53.33 164.67L53.33 487.78C150.93 487.78 205.16 487.78 216 487.78C230.85 487.8 245.63 485.98 260 482.39C273.62 479 286.52 473.35 298.13 465.7C309.38 458.19 318.54 448.13 324.8 436.41C331.73 423.31 335.12 408.74 334.67 394.03C335.17 375.82 329.87 357.89 319.47 342.66C308.28 327.35 291.69 316.49 272.8 312.1C273.07 312.1 273.87 312.1 274.13 312.1ZM127.2 219.89C168.64 219.89 191.66 219.89 196.27 219.89C202.61 219.88 208.95 220.4 215.2 221.43C220.96 222.25 226.49 224.17 231.47 227.08C236.28 229.7 240.17 233.63 242.67 238.38C245.76 244.08 247.23 250.46 246.93 256.88C247.94 268.09 243.28 279.09 234.4 286.41C224.86 292.73 213.44 295.89 201.87 295.4C196.89 295.4 172 295.4 127.2 295.4L127.2 219.89ZM244.27 423.83C238.94 427.02 233.07 429.28 226.93 430.51C220.11 431.98 213.13 432.67 206.13 432.56C200.8 432.56 174.13 432.56 126.13 432.56L126.13 343.95C174.13 343.95 200.8 343.95 206.13 343.95C219.86 343.37 233.42 347.06 244.8 354.48C255.23 363.49 260.58 376.75 259.2 390.18C259.92 397.24 258.92 404.37 256.27 410.99C253.53 416.22 249.38 420.66 244.27 423.83Z" id="a1GBtnhpxv"></path></defs><g><g><g><use xlink:href="#a1GBtnhpxv" opacity="1" fill="#000000" fill-opacity="1"></use><g><use xlink:href="#a1GBtnhpxv" opacity="1" fill-opacity="0" stroke="#000000" stroke-width="1" stroke-opacity="0"></use></g></g></g></g></svg>