<svg width="94" height="38" viewBox="0 0 94 38" fill="none" xmlns="http://www.w3.org/2000/svg">
<path d="M5.225 16.15C5.675 15.5167 6.29167 14.9917 7.075 14.575C7.875 14.1417 8.78333 13.925 9.8 13.925C10.9833 13.925 12.05 14.2167 13 14.8C13.9667 15.3833 14.725 16.2167 15.275 17.3C15.8417 18.3667 16.125 19.6083 16.125 21.025C16.125 22.4417 15.8417 23.7 15.275 24.8C14.725 25.8833 13.9667 26.725 13 27.325C12.05 27.925 10.9833 28.225 9.8 28.225C8.78333 28.225 7.88333 28.0167 7.1 27.6C6.33333 27.1833 5.70833 26.6583 5.225 26.025V34.6H1.725V14.15H5.225V16.15ZM12.55 21.025C12.55 20.1917 12.375 19.475 12.025 18.875C11.6917 18.2583 11.2417 17.7917 10.675 17.475C10.125 17.1583 9.525 17 8.875 17C8.24167 17 7.64167 17.1667 7.075 17.5C6.525 17.8167 6.075 18.2833 5.725 18.9C5.39167 19.5167 5.225 20.2417 5.225 21.075C5.225 21.9083 5.39167 22.6333 5.725 23.25C6.075 23.8667 6.525 24.3417 7.075 24.675C7.64167 24.9917 8.24167 25.15 8.875 25.15C9.525 25.15 10.125 24.9833 10.675 24.65C11.2417 24.3167 11.6917 23.8417 12.025 23.225C12.375 22.6083 12.55 21.875 12.55 21.025ZM22.1684 16.3C22.6184 15.5667 23.2017 14.9917 23.9184 14.575C24.6517 14.1583 25.485 13.95 26.4184 13.95V17.625H25.4934C24.3934 17.625 23.56 17.8833 22.9934 18.4C22.4434 18.9167 22.1684 19.8167 22.1684 21.1V28H18.6684V14.15H22.1684V16.3ZM34.9258 28.225C33.5924 28.225 32.3924 27.9333 31.3258 27.35C30.2591 26.75 29.4174 25.9083 28.8008 24.825C28.2008 23.7417 27.9008 22.4917 27.9008 21.075C27.9008 19.6583 28.2091 18.4083 28.8258 17.325C29.4591 16.2417 30.3174 15.4083 31.4008 14.825C32.4841 14.225 33.6924 13.925 35.0258 13.925C36.3591 13.925 37.5674 14.225 38.6508 14.825C39.7341 15.4083 40.5841 16.2417 41.2008 17.325C41.8341 18.4083 42.1508 19.6583 42.1508 21.075C42.1508 22.4917 41.8258 23.7417 41.1758 24.825C40.5424 25.9083 39.6758 26.75 38.5758 27.35C37.4924 27.9333 36.2758 28.225 34.9258 28.225ZM34.9258 25.175C35.5591 25.175 36.1508 25.025 36.7008 24.725C37.2674 24.4083 37.7174 23.9417 38.0508 23.325C38.3841 22.7083 38.5508 21.9583 38.5508 21.075C38.5508 19.7583 38.2008 18.75 37.5008 18.05C36.8174 17.3333 35.9758 16.975 34.9758 16.975C33.9758 16.975 33.1341 17.3333 32.4508 18.05C31.7841 18.75 31.4508 19.7583 31.4508 21.075C31.4508 22.3917 31.7758 23.4083 32.4258 24.125C33.0924 24.825 33.9258 25.175 34.9258 25.175ZM48.7932 17.025V23.725C48.7932 24.1917 48.9015 24.5333 49.1182 24.75C49.3515 24.95 49.7348 25.05 50.2682 25.05H51.8932V28H49.6932C46.7432 28 45.2682 26.5667 45.2682 23.7V17.025H43.6182V14.15H45.2682V10.725H48.7932V14.15H51.8932V17.025H48.7932ZM56.1855 12.5C55.5689 12.5 55.0522 12.3083 54.6355 11.925C54.2355 11.525 54.0355 11.0333 54.0355 10.45C54.0355 9.86667 54.2355 9.38333 54.6355 9C55.0522 8.6 55.5689 8.4 56.1855 8.4C56.8022 8.4 57.3105 8.6 57.7105 9C58.1272 9.38333 58.3355 9.86667 58.3355 10.45C58.3355 11.0333 58.1272 11.525 57.7105 11.925C57.3105 12.3083 56.8022 12.5 56.1855 12.5ZM57.9105 14.15V28H54.4105V14.15H57.9105ZM60.4686 21.025C60.4686 19.625 60.7436 18.3833 61.2936 17.3C61.8602 16.2167 62.6186 15.3833 63.5686 14.8C64.5352 14.2167 65.6102 13.925 66.7936 13.925C67.8269 13.925 68.7269 14.1333 69.4936 14.55C70.2769 14.9667 70.9019 15.4917 71.3686 16.125V14.15H74.8936V28H71.3686V25.975C70.9186 26.625 70.2936 27.1667 69.4936 27.6C68.7102 28.0167 67.8019 28.225 66.7686 28.225C65.6019 28.225 64.5352 27.925 63.5686 27.325C62.6186 26.725 61.8602 25.8833 61.2936 24.8C60.7436 23.7 60.4686 22.4417 60.4686 21.025ZM71.3686 21.075C71.3686 20.225 71.2019 19.5 70.8686 18.9C70.5352 18.2833 70.0852 17.8167 69.5186 17.5C68.9519 17.1667 68.3436 17 67.6936 17C67.0436 17 66.4436 17.1583 65.8936 17.475C65.3436 17.7917 64.8936 18.2583 64.5436 18.875C64.2102 19.475 64.0436 20.1917 64.0436 21.025C64.0436 21.8583 64.2102 22.5917 64.5436 23.225C64.8936 23.8417 65.3436 24.3167 65.8936 24.65C66.4602 24.9833 67.0602 25.15 67.6936 25.15C68.3436 25.15 68.9519 24.9917 69.5186 24.675C70.0852 24.3417 70.5352 23.875 70.8686 23.275C71.2019 22.6583 71.3686 21.925 71.3686 21.075ZM77.4119 21.025C77.4119 19.625 77.6869 18.3833 78.2369 17.3C78.8036 16.2167 79.5619 15.3833 80.5119 14.8C81.4786 14.2167 82.5536 13.925 83.7369 13.925C84.7702 13.925 85.6702 14.1333 86.4369 14.55C87.2202 14.9667 87.8452 15.4917 88.3119 16.125V14.15H91.8369V28H88.3119V25.975C87.8619 26.625 87.2369 27.1667 86.4369 27.6C85.6536 28.0167 84.7452 28.225 83.7119 28.225C82.5452 28.225 81.4786 27.925 80.5119 27.325C79.5619 26.725 78.8036 25.8833 78.2369 24.8C77.6869 23.7 77.4119 22.4417 77.4119 21.025ZM88.3119 21.075C88.3119 20.225 88.1452 19.5 87.8119 18.9C87.4786 18.2833 87.0286 17.8167 86.4619 17.5C85.8952 17.1667 85.2869 17 84.6369 17C83.9869 17 83.3869 17.1583 82.8369 17.475C82.2869 17.7917 81.8369 18.2583 81.4869 18.875C81.1536 19.475 80.9869 20.1917 80.9869 21.025C80.9869 21.8583 81.1536 22.5917 81.4869 23.225C81.8369 23.8417 82.2869 24.3167 82.8369 24.65C83.4036 24.9833 84.0036 25.15 84.6369 25.15C85.2869 25.15 85.8952 24.9917 86.4619 24.675C87.0286 24.3417 87.4786 23.875 87.8119 23.275C88.1452 22.6583 88.3119 21.925 88.3119 21.075Z" fill="white"/>
<circle cx="56.5" cy="10.5" r="2.5" fill="url(#paint0_linear)"/>
<defs>
<linearGradient id="paint0_linear" x1="56.5" y1="8" x2="56.5" y2="13" gradientUnits="userSpaceOnUse">
<stop stop-color="#ED8F86"/>
<stop offset="0.171875" stop-color="#DC4768"/>
<stop offset="1" stop-color="#95365D"/>
</linearGradient>
</defs>
</svg>
